<svg xmlns="http://www.w3.org/2000/svg" viewBox="0 0 24 24" width="24" height="24">
  <path d="M21.6 0H2.4C1.074 0 0 1.074 0 2.4v19.2C0 22.926 1.074 24 2.4 24h19.2c1.326 0 2.4-1.074 2.4-2.4V2.4C24 1.074 22.926 0 21.6 0zM7.2 19.2H3.6V9.6h3.6v9.6zm-1.8-11.52c-.948 0-1.68-.72-1.68-1.632 0-.912.732-1.632 1.68-1.632s1.68.72 1.68 1.632c0 .912-.732 1.632-1.68 1.632zm15.6 11.52h-3.6v-6.96c0-1.656-.624-2.784-1.944-2.784-1.056 0-1.68.72-1.968 1.416-.096.24-.12.576-.12.912v7.416h-3.6V9.6h3.48v1.176h.048c.48-.888 1.656-1.824 3.432-1.824 2.52 0 4.416 1.656 4.416 5.232v6.816z"/>
</svg>
